<?xml version="1.0" encoding="utf-8"?>
<!-- Generator: Adobe Illustrator 23.0.4, SVG Export Plug-In . SVG Version: 6.00 Build 0)  -->
<svg version="1.1" id="圖層_1" xmlns="http://www.w3.org/2000/svg" xmlns:xlink="http://www.w3.org/1999/xlink" x="0px" y="0px"
	 viewBox="0 0 176.1 30" style="enable-background:new 0 0 176.1 30;" xml:space="preserve">
<style type="text/css">
	.st0{fill:#0739AE;}
	.st1{fill:#FF6708;}
</style>
<title>logo_carplus</title>
<path class="st0" d="M28.1,3.6l-2.4,2.1l-6.6,5.8l7.6,8.1l0,0l-11.2-7.2l4.6-8.7c-0.3,0-0.7-0.1-1-0.1c-0.4,0-0.8-0.1-1.2,0
	c-6,0-11,4.1-11,9.1c0.1,1.8,0.8,3.6,2,5c0.9,1.3,2.1,2.3,3.4,3.1l0,0c2,1,4.3,1.5,6.6,1.6h0.2c7.2,0,13-4.9,13-10.9
	C32,8.3,30.5,5.4,28.1,3.6z"/>
<path class="st1" d="M25.7,5.7l2.4-2.1c-2.6-2-5.7-3-9-3c-7.2,0-13,4.9-13,10.9c0,3.9,2.5,7.4,6.2,9.3c-1.4-0.8-2.5-1.8-3.4-3.1
	c-1.2-1.4-1.8-3.2-1.8-5c0-5,4.9-9.1,10.9-9.1c0.4,0,0.9,0,1.3,0.1c0.3,0,0.6,0,0.9,0.1l-4.6,8.7l11.1,7.2l0,0l-7.5-8.2L25.7,5.7z"
	/>
<path class="st1" d="M9.8,27.3l1.4,2.1H8.4C8.7,29,9.2,28,9.8,27.3z"/>
<path class="st0" d="M18.8,29.3c-0.1-0.1-1-1.3-1.3-1.8c-0.2-0.2-0.4-0.3-0.7-0.3h-2.5V26h3.6c-0.3-0.7-0.9-1.2-1.7-1.3h-3.1v3.5
	c-0.1-0.1-0.2-0.3-0.3-0.5c-0.6-0.9-1.3-1.8-1.9-2.7c-0.1-0.2-0.4-0.3-0.6-0.3H9.4c-0.2,0-0.5,0.1-0.6,0.3c-0.6,0.9-1.2,1.8-1.9,2.8
	c-0.2,0.2-0.3,0.3-0.6,0.3H3.4c-0.2,0-0.3,0-0.5-0.1c-0.6,0-1-0.4-1-1s0.4-1,1-1c0.2,0,0.4-0.1,0.6,0h3v-1.2H3c-0.1,0-0.3,0-0.4,0
	c-1.2,0.3-2,1.6-1.7,2.8c0.3,1,1.2,1.8,2.3,1.8h3.7c0.3,0,0.5-0.1,0.6-0.3c0.6-1,2.1-3.1,2.3-3.3l2.4,3.6h2.1v-1h1.9
	c0.2,0,0.4,0.1,0.5,0.3l0.5,0.8h1.6L18.8,29.3L18.8,29.3z"/>
<path class="st1" d="M37.9,27c-0.4-0.1-0.7-0.2-1.1-0.3c-0.5-0.1-0.8-0.1-1.2-0.2c-0.2,0-0.5-0.1-0.5-0.4s0.5-0.4,0.7-0.4
	c0.9-0.1,1.8,0,2.7,0.3v-1c-1-0.3-1.9-0.3-2.9-0.2c-0.7,0-1.4,0.3-1.9,0.9c0,0-0.1,0.1-0.1,0.2v-1.1h-1.4v2.8c0,0.5-0.1,0.7-0.6,0.8
	c-0.4,0.1-0.8,0.1-1.2,0c-0.4-0.1-0.5-0.3-0.5-0.7v-2.9h-1.5v3.5h-2.7v-3.6h-1.4v1.4c-0.2-0.8-0.9-1.4-1.7-1.4H19v1.3h2.6
	c0.5,0,0.7,0.2,0.7,0.6c0,0.3-0.2,0.6-0.6,0.6c0,0-0.1,0-0.1,0h-2.7c0,0.3-0.1,1.7-0.1,2l0.1,0.1h1.5c0-0.3,0-0.5,0-0.8h1.6
	c1.8,0,1.9-1.1,2-1.4v2.2h4.2v-1c0.3,0.4,0.7,0.7,1.2,0.9c0.9,0.3,1.9,0.3,2.8,0c0.8-0.1,1.4-0.9,1.2-1.7v-0.9
	c0.4,0.4,1,0.7,1.6,0.8c0.3,0.1,0.7,0.1,1,0.2c0.2,0,0.4,0.1,0.6,0.2c0.1,0.1,0.2,0.2,0.2,0.3c0,0.1-0.1,0.2-0.2,0.3
	c-0.3,0.1-0.5,0.1-0.8,0.1c-0.7,0-1.5-0.1-2.2-0.3v1c1,0.2,2.1,0.3,3.1,0.2c0.5,0,0.9-0.2,1.3-0.4c0.5-0.2,0.7-0.8,0.5-1.3
	C38.5,27.3,38.2,27.1,37.9,27z"/>
<g>
	<path class="st0" d="M160.8,19.1h-10.2c-0.1,0-0.2,0-0.2,0c-0.1,0-0.1-0.1-0.1-0.1c0-0.3,0-0.6,0-0.9h9.1c0.2,0,0.4,0,0.5-0.2
		c0.1-0.2,0.2-0.4,0.2-0.6c0-1.3,0-2.6,0-3.9c0.1-1,0-2.1-0.1-3.1c-0.1-0.7-0.6-1.4-1.3-1.7c-0.5-0.3-1.1-0.4-1.7-0.4h-6.7v-1h10.3
		V4.6h-10.4c0-0.2,0-0.5,0-0.7s-0.1-0.3-0.3-0.3c-1,0-2,0-3,0c-0.2,0-0.3,0.1-0.3,0.3c0,0.2,0,0.5,0,0.8h-10.5v2.7h10.5v0.9h-9.2
		c-0.4,0-0.5,0.1-0.5,0.5V9c0,2.8,0,5.6,0,8.3c0,0.5,0.1,0.8,0.8,0.8c2.9,0,5.7,0,8.5,0c0.1,0,0.2,0,0.3,0c0.1,0,0.1,0.1,0.1,0.1
		c0,0.3,0,0.6,0,0.9h-10.9c-0.4,0-0.4,0-0.4,0.4c0,0.5,0,1.1,0,1.6s-0.1,0.6,0.6,0.6c3.4,0,6.9,0,10.3,0c0.3,0,0.4,0.1,0.4,0.4
		c0,0.5,0,1,0,1.5c0,0.2,0,0.3,0.2,0.3h3.1c0.2,0,0.3-0.1,0.3-0.3c0-0.5,0-1,0-1.5s0-0.4,0.4-0.4h10.6v-2.6H160.8z M140.3,11.1
		c0-0.3,0.1-0.4,0.3-0.4h5.6c0.2,0,0.3,0.1,0.3,0.3c0,0.2,0,0.4,0,0.6c0,0.3-0.1,0.4-0.4,0.4h-5.6c-0.2,0-0.3-0.1-0.3-0.3
		C140.3,11.5,140.3,11.3,140.3,11.1L140.3,11.1z M146.6,15.3h-5.9c-0.4,0-0.4,0-0.4-0.4c0-0.7,0-0.7,0.8-0.8h5.1
		c0.3,0,0.4,0.1,0.4,0.4S146.6,15.1,146.6,15.3L146.6,15.3z M150.1,11.6c0-0.3,0-0.5,0-0.8h5.9c0.4,0,0.4,0,0.4,0.4
		c0,0.8,0,0.8-0.8,0.8h-5.2C150.2,12,150.1,11.9,150.1,11.6L150.1,11.6z M150.1,14.4c0-0.2,0.1-0.2,0.2-0.2h5.9
		c0.2,0,0.2,0.1,0.2,0.2c0,1.1,0.2,0.9-0.8,0.9c-1.7,0-3.4,0-5.1,0h-0.4L150.1,14.4z"/>
	<path class="st0" d="M130.6,20.8c0-4.5,0-9,0-13.4c0-0.7-0.1-1.3-0.4-1.9c-0.3-0.5-0.7-1-1.2-1.3c-0.5-0.3-1.1-0.5-1.7-0.5
		c-1.3,0-2.7,0-4.1,0h-5c-0.2,0-0.3,0-0.5,0.1c-0.4,0.1-0.6,0.5-0.5,0.9v11.7c0,0.1,0,0.2,0,0.4l-3.7-4.3c0.1,0,0.2,0,0.4,0h2.2
		c0.2,0,0.3-0.1,0.3-0.3c0-0.7,0-1.5,0-2.2c0-0.2-0.1-0.3-0.3-0.3c-0.6,0-1.1,0-1.7,0h-0.8V6.8l2-0.4c0.3-0.1,0.6-0.1,0.8-0.1
		c0.1,0,0.2-0.1,0.1-0.2c0-0.1,0-0.3-0.1-0.4c-0.2-0.6-0.3-1.1-0.4-1.7c-0.1-0.3-0.2-0.3-0.4-0.3s-0.3,0.1-0.4,0.1
		c-0.6,0.1-1.2,0.2-1.8,0.3s-1.4,0.3-2.1,0.4c-0.4,0.1-0.8,0.1-1.3,0.1l-2.6,0.1c-0.7,0-0.7,0-0.5,0.6s0.2,1.2,0.4,1.8
		c0,0.1,0,0.4,0.3,0.4s0.8-0.1,1.2-0.1s0.7-0.1,1.1-0.2s0.4,0,0.4,0.3c0,0.6,0,1.1,0,1.7c0,0.3-0.1,0.4-0.3,0.4c-1,0-2,0-3.1,0
		c-0.2,0-0.3,0.1-0.3,0.3c0,0.7,0,1.5,0,2.2c0,0.2,0.1,0.3,0.3,0.3h2.9c-0.9,2.2-2.2,4.3-3.7,6.1c0.3,0.1,0.6,0.2,0.8,0.3
		c0.5,0.1,0.9,0.2,1.4,0.3c0.5,0.2,0.8,0,1.3-0.4c0.2-0.2,0.5-0.4,0.8-0.7v6h3.2v-7h0.1l0.6,0.9c0.2,0.3,0.4,0.6,0.6,0.9l2.4-1.3
		v3.9h-1.8v2.6h16.2v-2.7h-1L130.6,20.8z M120.4,6.9c0-0.4,0.2-0.7,0.6-0.7c2,0,3.9,0,5.9,0h0.3v3.1H127h-6.2
		c-0.3,0-0.4-0.1-0.4-0.4C120.4,8.3,120.4,7.6,120.4,6.9z M120.4,12.5c0-0.2,0-0.3,0.3-0.3h6.5h0.1v3.1h-6.5c-0.3,0-0.4-0.1-0.4-0.4
		C120.4,14.2,120.4,13.3,120.4,12.5z M127.3,21.2H127h-6.3c-0.3,0-0.4-0.1-0.4-0.4c0-0.8,0-1.6,0-2.4c0-0.2,0-0.3,0.3-0.3h6.5h0.2
		L127.3,21.2z"/>
	<path class="st0" d="M67.5,10.9c0.4-0.4,0.7-0.8,1-1.2c0.4-0.6,0.7-1.2,1-1.8c0.4-0.8,0.5-1.6,0.4-2.5c0-0.2-0.1-0.4-0.2-0.6
		c-0.4-0.7-1.2-1.2-2-1.2c-2.4,0-4.9,0-7.3,0c-0.2,0-0.3,0.1-0.4,0.3C60,4.1,60,4.3,59.9,4.5c-0.2,0.4-0.4,0.8-0.6,1.2
		c-0.2,0.4-0.4,0.7-0.6,1c-0.4,0.4-0.8,0.8-1.2,1.2c-0.1,0.1-0.2,0.1-0.3,0.3c0-0.4-0.2-0.5-0.5-0.5h-2.1V7.3c0-1.1,0-2.3,0-3.4
		c0-0.3-0.1-0.4-0.3-0.3c-0.8,0-1.5,0-2.3,0c-0.4,0-0.4,0-0.4,0.4v3.8h-3.5c-0.3,0-0.4,0-0.4,0.4c0,0.6,0,1.2,0,1.8
		c0,0.3,0.1,0.3,0.3,0.3h3.2c-0.8,2.2-2,4.2-3.5,6c0.2,0.1,0.3,0.2,0.4,0.2c0.7,0.3,1.4,0.6,2.1,0.9c0.1,0,0.3,0.2,0.5-0.1
		s0.5-0.8,0.7-1.2c0.1,0.1,0.1,0.2,0.1,0.3c0,2.3,0,4.7,0,7.1c0,0.3,0.1,0.4,0.3,0.4c0.8,0,1.6,0,2.3,0c0.4,0,0.4,0,0.4-0.4v-8.8
		c0-0.1,0-0.2,0-0.4h0.1c0.2,0.3,0.4,0.6,0.7,0.9c0.3,0.4,0.4,0.4,0.8,0.1c0.2-0.2,0.3-0.2,0.5,0c0.3,0.4,0.5,0.8,0.8,1.1
		c0,0,0.1,0.1,0.1,0.1c0.2,0,0.5-0.1,0.7-0.1c0,0.1,0,0.2,0,0.3c0,2.3,0,4.5,0,6.8c0,0.3,0.1,0.3,0.3,0.3h2.5c0.5,0,0.5,0.1,0.5-0.5
		c0-0.1,0-0.1,0-0.2h6c0.5,0,0.5,0,0.5,0.5c0,0.1,0,0.1,0,0.2h2.9c0.4,0,0.4,0,0.4-0.4c0-1.4,0-2.7,0-4.1c0-0.7,0-1.5-0.2-2.2
		c-0.1-0.4-0.3-0.8-0.7-1c-0.7-0.4-1.5-0.6-2.3-0.6c-2.3-0.1-4.7,0-7,0c-0.1,0-0.3,0-0.5,0c0.7-0.3,1.3-0.6,1.9-0.9
		c0.6-0.3,1.2-0.6,1.8-1c0.2-0.1,0.4-0.1,0.6,0c0.4,0.2,0.8,0.4,1.2,0.6c0.7,0.3,1.3,0.5,2,0.8c0.5,0.2,1,0.3,1.5,0.5l1,0.3l1.2,0.3
		c0.3,0.1,0.5,0,0.7-0.3c0,0,0,0,0,0l1-2.1c-2.2-0.4-4.3-1.2-6.3-2.2L67.5,10.9z M61.4,18.6c0-0.2,0.1-0.3,0.3-0.3h5.9
		c0.3,0,0.4,0.1,0.4,0.4c0,0.5,0,1.1,0,1.7c0,0.2-0.1,0.3-0.3,0.3c-1,0-2,0-3,0h-3c-0.2,0-0.3,0-0.3-0.3
		C61.5,19.8,61.5,19.2,61.4,18.6z M61.5,12c-0.4,0.2-0.8,0.5-1.3,0.7s-0.9,0.4-1.4,0.6c-0.3,0.1-0.6,0.2-0.8,0.3s-0.4,0.1-0.7-0.2
		c-0.4-0.4-0.8-0.9-1.2-1.4l-1.3-1.3c-0.1-0.1-0.3-0.2-0.4-0.4l0.1-0.1h2.2c0.2,0,0.4,0,0.5-0.1c0.1,0.1,0.3,0.3,0.4,0.5
		c0.1,0.1,0.3,0.2,0.4,0.1c0,0,0,0,0,0c0.3-0.2,0.7-0.4,1-0.7l1-0.8l2.1,2.3C61.9,11.7,61.7,11.9,61.5,12z M64.4,9.8
		c-0.5-0.5-1-1-1.5-1.5c-0.3-0.3-0.5-0.6-0.8-0.9C62,7.3,62,7.1,62,7c0.1-0.3,0.2-0.6,0.4-0.8c0-0.1,0.1-0.2,0.3-0.2h4
		C66.7,6.9,65.3,9.5,64.4,9.8z"/>
	<path class="st0" d="M102,21.3H88.9c-0.4,0-0.5,0-0.5-0.5V13c0-0.4,0-0.4,0.4-0.4h10.9c0.8,0,0.8,0.1,0.8-0.7v-2H88.9
		c-0.4,0-0.4,0-0.4-0.4c0-1.9,0-3.7,0-5.6c0-0.3-0.1-0.4-0.4-0.4c-0.9,0-1.8,0-2.6,0c-0.4,0-0.4,0-0.4,0.4v16.9c0,0.5,0,0.5-0.5,0.5
		H77h-0.4v2.5h25.6c0.2,0,0.3-0.1,0.3-0.3c0-0.6,0-1.1,0-1.7S102.6,21.3,102,21.3z"/>
</g>
</svg>
